<svg id="Non-comedogenic_icon" data-name="Non-comedogenic icon" xmlns="http://www.w3.org/2000/svg" xmlns:xlink="http://www.w3.org/1999/xlink" width="62.727" height="65.895" viewBox="0 0 62.727 65.895">
  <defs>
    <clipPath id="clip-path">
      <rect id="Rectangle_1651" data-name="Rectangle 1651" width="62.727" height="65.895" fill="none"/>
    </clipPath>
  </defs>
  <g id="Group_4070" data-name="Group 4070" clip-path="url(#clip-path)">
    <path id="Path_35154" data-name="Path 35154" d="M69.348,49.879A29.924,29.924,0,1,1,39.424,19.955,29.924,29.924,0,0,1,69.348,49.879" transform="translate(-6.621 -13.908)" fill="#3172e9"/>
    <path id="Path_35155" data-name="Path 35155" d="M63.567,33.058A30.509,30.509,0,1,1,33.058,2.549,30.509,30.509,0,0,1,63.567,33.058Zm-54.985,3.8c4.012,0,4.012,5.694,8.028,5.694s4.012-5.694,8.025-5.694,4.013,5.694,8.025,5.694,4.015-5.694,8.033-5.694,4.018,5.694,8.039,5.694,4.018-5.694,8.039-5.694M8.582,26.939H56.771" transform="translate(-1.777 -1.777)" fill="none" stroke="#231f20" stroke-linecap="round" stroke-width="2"/>
  </g>
</svg>
