<svg xmlns="http://www.w3.org/2000/svg" xmlns:xlink="http://www.w3.org/1999/xlink" width="74.336" height="89.231" viewBox="0 0 74.336 89.231">
  <defs>
    <clipPath id="clip-path">
      <path id="Path_35032" data-name="Path 35032" d="M0,2.019H74.336V-87.213H0Z" transform="translate(0 87.213)" fill="none"/>
    </clipPath>
  </defs>
  <g id="Clean_beauty_icon" data-name="Clean beauty icon" transform="translate(0 87.213)">
    <g id="Group_3978" data-name="Group 3978" transform="translate(0 -87.213)" clip-path="url(#clip-path)">
      <g id="Group_3976" data-name="Group 3976" transform="translate(0.887 3.804)">
        <path id="Path_35030" data-name="Path 35030" d="M3.174,38.292S12.2,36.429,16.914,14.168a5.6,5.6,0,0,1-2.078-2.479C12.613,6.733,14.434,1.522,17.9.611c4.774-1.238,6.486,4.881,6.486,4.881,3.607-1.53,4.664-7.944,6.923-10.968,4.774-6.34,8.6-5.1,9.4-4.738h.036a17.286,17.286,0,0,1,2.479,5.25C44.645.828,42.314,3.962,44.9,7.754a11.543,11.543,0,0,0,2.661,2.732s2,2.188-2.223,4.009a1.725,1.725,0,0,0,.22,2.369c1.128,1.167-1.2,2.331-3.173,2.441,0,0,3.354,2.515,1.825,3.244-1.351.655-1.494.619-1.533.58l.33,1.679a4.623,4.623,0,0,1-.149,2.441c-.473,1.277-1.637,2.661-4.735,2.006,0,0-2.625-.768-5.941-1.86l-.911,7.581s4.006,8.277,17.415,8.751c13.376.438,18.353,8.873,13.287,16.564,0,0,17.32-12.778,3.854-28.505C53.759,17.693,59.03,13.463,52.729-2.5,44.061-24.456,20.75-18.691,20.75-18.691v.074C5.252-16.459.341-.288.341-.288c-4.92,16.147.792,33.806,2.834,38.58" transform="translate(1.606 19.375)" fill="#3172e9"/>
      </g>
      <g id="Group_3977" data-name="Group 3977" transform="translate(1.488 1.488)">
        <path id="Path_35031" data-name="Path 35031" d="M3.122,38.113S12,36.259,16.632,14.1a5.546,5.546,0,0,1-2.042-2.464C12.405,6.7,14.2,1.512,17.6.607,22.3-.628,23.98,5.468,23.98,5.468c3.548-1.524,4.587-7.908,6.81-10.917,4.694-6.313,8.456-5.081,9.245-4.718h.036a17.284,17.284,0,0,1,2.438,5.224c1.4,5.768-.9,8.888,1.649,12.659a11.39,11.39,0,0,0,2.616,2.72s1.97,2.179-2.185,3.991a1.727,1.727,0,0,0,.214,2.357c1.11,1.161-1.185,2.322-3.119,2.432,0,0,3.3,2.5,1.792,3.226-1.325.655-1.467.616-1.506.58l.324,1.67a4.668,4.668,0,0,1-.143,2.429c-.467,1.271-1.613,2.649-4.661,2,0,0-2.581-.762-5.84-1.851l-.9,7.545s3.938,8.239,17.126,8.709c13.153.435,18.049,8.834,13.066,16.486,0,0,17.034-12.718,3.789-28.371C52.869,17.608,58.051,13.4,51.857-2.488,43.333-24.344,20.406-18.6,20.406-18.6v.071C5.163-16.385.336-.286.336-.286c-4.84,16.07.78,33.645,2.786,38.4" transform="translate(1.579 19.284)" fill="none" stroke="#2b2e34" stroke-linecap="round" stroke-linejoin="round" stroke-width="1.5"/>
      </g>
    </g>
  </g>
</svg>
