<svg xmlns="http://www.w3.org/2000/svg" xmlns:xlink="http://www.w3.org/1999/xlink" width="77.366" height="77.634" viewBox="0 0 77.366 77.634">
  <defs>
    <clipPath id="clip-path">
      <path id="Path_35023" data-name="Path 35023" d="M0,53.6H77.366V-24.035H0Z" transform="translate(0 24.035)" fill="none"/>
    </clipPath>
  </defs>
  <g id="Cruelty-free_icon" data-name="Cruelty-free icon" clip-path="url(#clip-path)">
    <g id="Group_3965" data-name="Group 3965" transform="translate(5.598 3.311)">
      <path id="Path_35020" data-name="Path 35020" d="M43.954,19A18.03,18.03,0,0,0,35.3,16.268l.087-1.066a36.075,36.075,0,0,0-.9-11.224A27.283,27.283,0,0,0,30.624-5.5c-1.347-1.919-2.775-3.02-3.921-3.02h-.065l-.31.042c-2.213.488-2.955,6.909-1.961,13.411-.162-.226-.317-.468-.475-.685-3.779-5.2-8.036-8.757-10.44-8.757a1.754,1.754,0,0,0-.975.265c-1.053.7-1.3,2.842-.665,5.746a31.649,31.649,0,0,0,4.551,10.175,32.016,32.016,0,0,0,8.091,8.227l.885.7c-.078.113-.187.2-.258.32-1.263,2.051-2.1,3.815-2.058,5.746l-.262.265A20.733,20.733,0,0,0,12.3,23.268q-.984-.053-1.954-.055c-7.158,0-13.608,2.364-18.163,6.664a20.043,20.043,0,0,0-5.888,10.23l-1.318.074a5.672,5.672,0,0,0-4.684,5.837c0,3.178,2.319,5.808,5.168,5.866l1.292.016a17.1,17.1,0,0,0,5.278,8.692C-3.944,64.05,2.148,65.8,10.142,65.8A20.881,20.881,0,0,0,18.6,64.176l16.535.01c1.7,0,2.82-.284,3.414-.866a2.522,2.522,0,0,0,.623-1.957c0-1.082-1-2.749-3.753-2.9l-.236-.342,5.187-16.509.258-.181.552.01c4.2,0,7.658-1.718,9.509-4.709,3.343-5.423.32-13.379-6.741-17.736" transform="translate(19.71 8.519)" fill="#3172e9"/>
    </g>
    <g id="Group_3966" data-name="Group 3966" transform="translate(1.709 2.217)">
      <path id="Path_35021" data-name="Path 35021" d="M0,38.407c0,3.841,2.852,6.967,6.357,6.967A.832.832,0,0,0,6.7,45.3a17.926,17.926,0,0,0,5.417,8.511c4.228,3.637,10.562,5.481,18.828,5.481a22.083,22.083,0,0,0,8.834-1.66.822.822,0,0,0,.239.036H55.55c2.235.055,3.7-.32,4.571-1.169a3.7,3.7,0,0,0,.953-2.742c0-1.634-1.282-3.359-3.74-3.86l4.7-14.968c4.516-.019,8.369-1.944,10.394-5.229,3.663-5.934.478-14.564-7.1-19.238a19.518,19.518,0,0,0-8.046-2.836,37.153,37.153,0,0,0-.924-11.493,28.289,28.289,0,0,0-4.041-9.865c-1.806-2.581-3.731-3.8-5.426-3.421-2.552.565-3.753,4.732-3.237,10.695-3.947-4.706-8.437-7.978-10.979-6.3-1.489.982-1.893,3.43-1.131,6.89A32.746,32.746,0,0,0,36.254,4.676a33.239,33.239,0,0,0,8.408,8.553,12.978,12.978,0,0,0-1.822,4.4,20.346,20.346,0,0,0-9.677-3.062c-8.275-.478-15.711,1.974-20.931,6.9a21.222,21.222,0,0,0-6.018,9.978C2.775,31.53,0,34.618,0,38.407M44.232-3.028c.388.536.772,1.095,1.16,1.68a36.582,36.582,0,0,1,4.735,9.832,10.705,10.705,0,0,0-4.538,3.353,31.553,31.553,0,0,1-7.946-8.078,31.059,31.059,0,0,1-4.47-9.991c-.688-3.136-.2-4.732.423-5.142,1.386-.914,5.9,1.825,10.556,8.237a.687.687,0,0,0,.081.11M55.621,7.518a15.921,15.921,0,0,0-1.844.081,14.446,14.446,0,0,0-2.067.368A38.59,38.59,0,0,0,46.781-2.265c-.362-.549-.74-1.092-1.124-1.625-1.108-6.825-.065-11.273,1.6-11.641.95-.21,2.368.846,3.7,2.749a26.644,26.644,0,0,1,3.776,9.273,35.146,35.146,0,0,1,.885,11.027M7.19,36.737A19.224,19.224,0,0,1,13.372,22.68c4.887-4.613,11.88-6.9,19.7-6.454A19.451,19.451,0,0,1,43.1,19.767a.834.834,0,0,0,1.292-.714c-.039-1.793.759-3.469,1.974-5.433a9.774,9.774,0,0,1,7.581-4.367,16.9,16.9,0,0,1,10.5,2.62c6.8,4.193,9.735,11.8,6.557,16.951-1.828,2.962-5.307,4.58-9.558,4.432a.836.836,0,0,0-.824.581L55.447,50.342a.834.834,0,0,0,.749,1.082c2.355.126,3.211,1.463,3.211,2.329a2.016,2.016,0,0,1-.452,1.55c-.51.5-1.647.74-3.385.7H42.685a13.424,13.424,0,0,0,5.552-8.569c.982-5.717-1.906-10.979-7.022-12.794a.853.853,0,0,0-.278-.048A.831.831,0,0,0,40.66,36.2C45,37.745,47.44,42.245,46.6,47.148c-.872,5.065-5.443,10.478-15.65,10.478-7.855,0-13.825-1.709-17.743-5.081-3.992-3.43-6.014-8.75-6.014-15.808m-5.527,1.67a5.119,5.119,0,0,1,4.183-5.271,20.827,20.827,0,0,0-.32,3.6A30.623,30.623,0,0,0,6.273,43.7c-2.549-.052-4.609-2.406-4.609-5.3" transform="translate(0 17.223)" fill="#2b2e34"/>
    </g>
    <g id="Group_3967" data-name="Group 3967" transform="translate(61.392 34.456)">
      <path id="Path_35022" data-name="Path 35022" d="M1.2,0A1.736,1.736,0,1,1-.538,1.738,1.738,1.738,0,0,1,1.2,0" transform="translate(0.538)" fill="#1e1d1d"/>
    </g>
  </g>
</svg>
