<?xml version="1.0" encoding="UTF-8"?>
<svg id="Layer_2" xmlns="http://www.w3.org/2000/svg" xmlns:xlink="http://www.w3.org/1999/xlink" viewBox="0 0 108 145.97">
  <defs>
    <style>
      .cls-1, .cls-2 {
        fill: none;
      }

      .cls-2 {
        stroke: #000;
        stroke-linecap: round;
        stroke-linejoin: round;
        stroke-width: 2.99px;
      }

      .cls-3 {
        fill: #0075cf;
      }

      .cls-4 {
        clip-path: url(#clippath);
      }
    </style>
    <clipPath id="clippath">
      <rect class="cls-1" width="108" height="145.97"/>
    </clipPath>
  </defs>
  <g id="Layer_1-2" data-name="Layer_1">
    <g class="cls-4">
      <path class="cls-3" d="M88.79,107.74c.23-.63.53-1.29.92-2.02.25-.46.82-.62,1.28-.38.46.25.63.82.38,1.28-.35.64-.61,1.21-.8,1.75-.14.39-.5.63-.89.63-.11,0-.21-.02-.31-.05-.49-.17-.75-.71-.57-1.2"/>
      <path class="cls-3" d="M94.79,117.46c-.12.41-.5.67-.9.67-.09,0-.18-.01-.27-.04-2.04-.61-3.73-2.06-4.65-3.99-.22-.47-.03-1.03.44-1.25.47-.22,1.03-.02,1.25.44.69,1.44,1.96,2.53,3.49,2.99.5.15.78.67.63,1.17"/>
      <path class="cls-3" d="M95.33,117.93c-.12.41-.5.67-.9.67-.09,0-.18-.01-.27-.04-2.04-.61-3.73-2.06-4.65-3.99-.22-.47-.02-1.03.44-1.25.47-.22,1.03-.02,1.25.44.69,1.44,1.96,2.53,3.49,2.99.5.15.78.67.63,1.17M89.33,108.21c.23-.63.53-1.29.92-2.02.25-.46.82-.63,1.28-.38.46.25.62.82.38,1.28-.35.63-.61,1.21-.8,1.75-.14.39-.5.62-.89.62-.1,0-.21-.02-.31-.05-.49-.17-.75-.71-.57-1.2M101.7,99.95c-1.75-2.53-3.7-5.34-5.39-8.88-1.69,3.54-3.64,6.35-5.39,8.88-2.77,4-4.96,7.16-4.96,11.39,0,5.71,4.64,10.35,10.35,10.35s10.35-4.64,10.35-10.35c0-4.23-2.19-7.39-4.96-11.39"/>
      <path d="M95.77,121.23c-5.71,0-10.35-4.64-10.35-10.35,0-4.23,2.19-7.39,4.96-11.39,1.75-2.53,3.7-5.34,5.39-8.88,1.69,3.54,3.64,6.35,5.39,8.88,2.77,4,4.96,7.16,4.96,11.39,0,5.71-4.64,10.35-10.35,10.35M102.7,98.42c-2-2.9-4.28-6.18-6.07-10.48-.15-.35-.49-.58-.87-.58s-.72.23-.87.58c-1.79,4.3-4.06,7.58-6.07,10.48-2.84,4.1-5.29,7.65-5.29,12.46,0,6.74,5.49,12.23,12.23,12.23s12.23-5.49,12.23-12.23c0-4.82-2.45-8.36-5.29-12.46"/>
      <path d="M91.36,106.62c-.35.63-.61,1.21-.8,1.75-.14.39-.5.63-.89.63-.11,0-.21-.02-.31-.05-.49-.17-.75-.71-.57-1.2.23-.63.53-1.29.92-2.01.25-.46.82-.63,1.28-.38.46.25.63.82.38,1.28"/>
      <path d="M94.79,117.46c-.12.41-.5.67-.9.67-.09,0-.18-.01-.27-.04-2.04-.61-3.73-2.06-4.65-3.99-.22-.47-.03-1.03.44-1.25.47-.22,1.03-.02,1.25.44.69,1.44,1.96,2.53,3.49,2.99.5.15.78.67.63,1.17"/>
      <path class="cls-3" d="M80.98,67.55c-.75-.6-1.3-.87-1.3-.87,0,0-9.45-.47-22.04-7.63-6.78-3.85-12.09-10.36-15.54-15.55-8.45,22.54-32.2,23.18-32.2,23.18,0,0-.55.28-1.3.87v.05c-2.11-6.93-1.85-19.81-1.85-19.81.95-16.69,16.86-29.08,37.99-29.1h.06c21.15,0,37.09,12.4,38.04,29.1,0,0,.26,12.88-1.86,19.81"/>
      <path class="cls-3" d="M67.84,24.62c1.47-3.01,1.57-6.58,1.57-6.58C69.41,8.07,61.18,0,44.78,0h0C28.36,0,20.14,8.07,20.14,18.03c0,0,.09,3.58,1.57,6.58,6.29-3.73,14.19-5.89,23.01-5.9h.06c8.84,0,16.76,2.16,23.07,5.9"/>
      <path class="cls-2" d="M65.2,80.22h-2.29c-1.8,1.62-3.91,2.54-6.17,2.54s-4.38-.93-6.17-2.54M18.15,80.22h2.29c1.8,1.62,3.91,2.54,6.17,2.54s4.38-.93,6.17-2.54M30.07,101.92c4.42,3.75,8.44,4.64,11.61,4.64h-.01c3.17,0,7.19-.88,11.61-4.64M11.03,144.48s14.68-4.43,14.23-29.57M41.67,120.91c-22.4,0-30.64-28.11-30.64-28.11,0,0-8.33-3.65-9.41-12.21-1.08-8.57,5.54-11.93,5.54-11.93,0,0,23.5-.64,31.85-23M18.9,26.71c-1.5-3-1.59-6.62-1.59-6.62,0-9.88,8.13-17.89,24.36-17.89h0c16.23,0,24.36,8.01,24.36,17.89,0,0-.1,3.62-1.59,6.62M72.32,144.48s-14.68-4.43-14.23-29.57M34.49,37.81s7.43,16.19,19.89,23.28c12.46,7.1,21.8,7.57,21.8,7.57,0,0,6.63,3.36,5.55,11.93-1.08,8.56-9.41,12.21-9.41,12.21,0,0-8.24,28.11-30.64,28.11M77.46,69.58c2.1-6.88,1.84-19.66,1.84-19.66-.94-16.56-16.7-28.87-37.62-28.87h-.06c-20.9.02-36.63,12.31-37.57,28.87,0,0-.25,12.78,1.84,19.66"/>
    </g>
  </g>
</svg>