<?xml version="1.0" encoding="UTF-8"?>
<svg id="Layer_2" xmlns="http://www.w3.org/2000/svg" xmlns:xlink="http://www.w3.org/1999/xlink" viewBox="0 0 108.49 146.95">
  <defs>
    <style>
      .cls-1, .cls-2 {
        fill: none;
      }

      .cls-2 {
        stroke: #000;
        stroke-linecap: round;
        stroke-linejoin: round;
        stroke-width: 2.99px;
      }

      .cls-3 {
        fill: #0075cf;
      }

      .cls-4 {
        clip-path: url(#clippath);
      }
    </style>
    <clipPath id="clippath">
      <rect class="cls-1" width="108.49" height="146.95"/>
    </clipPath>
  </defs>
  <g id="Layer_1-2" data-name="Layer_1">
    <g class="cls-4">
      <path class="cls-3" d="M93.81,67.68c-.76-.6-1.3-.87-1.3-.87,0,0-9.46-.48-22.07-7.64-6.79-3.86-12.11-10.37-15.56-15.57-8.46,22.57-32.25,23.21-32.25,23.21,0,0-.54.28-1.3.87v.05c-2.11-6.94-1.85-19.84-1.85-19.84.96-16.71,16.88-29.12,38.04-29.14h.06c21.18,0,37.13,12.42,38.09,29.14,0,0,.26,12.9-1.87,19.84"/>
      <path class="cls-3" d="M80.65,24.69c1.47-3.01,1.57-6.59,1.57-6.59C82.22,8.12,73.99.04,57.56.04h0C41.13.04,32.89,8.12,32.89,18.1c0,0,.09,3.58,1.57,6.59,6.3-3.74,14.21-5.9,23.04-5.91h.06c8.85,0,16.78,2.17,23.09,5.91"/>
      <path class="cls-2" d="M78.35,80.43h-2.32c-1.83,1.63-3.97,2.58-6.27,2.58s-4.45-.94-6.27-2.58M30.56,80.43h2.32c1.83,1.63,3.97,2.58,6.27,2.58s4.45-.94,6.27-2.58M42.67,102.39c4.48,3.8,8.57,4.69,11.79,4.69h-.01c3.22,0,7.31-.9,11.79-4.69M1.49,104.4l5.12-6.99,6.61,4.21M23.33,125.62s-14.88-9.81-16.72-28.21M106.99,104.4l-5.12-6.99-6.61,4.21M85.16,125.62s14.88-9.81,16.72-28.21M23.33,145.45s14.91-4.48,14.45-29.92M54.45,121.61c-22.75,0-31.12-28.44-31.12-28.44,0,0-8.46-3.69-9.56-12.35-1.1-8.67,5.63-12.07,5.63-12.07,0,0,23.86-.64,32.35-23.27M31.33,26.3c-1.52-3.04-1.62-6.7-1.62-6.7,0-10,8.26-18.1,24.74-18.1h0c16.48,0,24.74,8.1,24.74,18.1,0,0-.1,3.66-1.62,6.7M85.58,145.45s-14.91-4.48-14.45-29.92M47.17,37.52s7.55,16.38,20.2,23.56c12.65,7.18,22.14,7.66,22.14,7.66,0,0,6.73,3.4,5.63,12.07-1.1,8.67-9.56,12.35-9.56,12.35,0,0-8.37,28.44-31.12,28.44M90.8,69.67c2.13-6.96,1.87-19.89,1.87-19.89-.96-16.76-16.97-29.21-38.21-29.21h-.06c-21.22.02-37.21,12.46-38.16,29.21,0,0-.26,12.93,1.87,19.89"/>
    </g>
  </g>
</svg>