<svg xmlns="http://www.w3.org/2000/svg" xmlns:xlink="http://www.w3.org/1999/xlink" width="54.849" height="74.428" viewBox="0 0 54.849 74.428">
  <defs>
    <clipPath id="clip-path">
      <path id="Path_35029" data-name="Path 35029" d="M0-31.3H54.849v-74.428H0Z" transform="translate(0 105.725)" fill="none"/>
    </clipPath>
  </defs>
  <g id="Safe_and_natural_icon" data-name="Safe and natural icon" clip-path="url(#clip-path)">
    <g id="Group_3973" data-name="Group 3973" transform="translate(9.92 10.893)">
      <path id="Path_35027" data-name="Path 35027" d="M10.645.147a.621.621,0,0,0-.991,0C6.8,3.911-7.354,23.051-7.354,33.8a17.5,17.5,0,0,0,35.009,0c0-10.752-14.166-29.872-17.01-33.656" transform="translate(7.354 0.101)" fill="#0075cf"/>
    </g>
    <g id="Group_3974" data-name="Group 3974" transform="translate(10.243 6.724)">
      <path id="Path_35028" data-name="Path 35028" d="M10.646,71.2a.6.6,0,0,0-.972,0C6.877,74.948-7.02,94.012-7.02,104.722a17.312,17.312,0,0,0,17.182,17.439,17.312,17.312,0,0,0,17.182-17.439C27.343,94.012,13.439,74.965,10.646,71.2Zm-.485,16.259v49.973m0-24.869,8.61-10.431m-8.61,10.431-8.61-10.431" transform="translate(7.02 -70.949)" fill="none" stroke="#2b2e34" stroke-linecap="round" stroke-linejoin="round" stroke-width="1.5"/>
    </g>
  </g>
</svg>
